<svg width="256" height="256" viewBox="0 0 256 256" fill="none" xmlns="http://www.w3.org/2000/svg">
<path fill-rule="evenodd" clip-rule="evenodd" d="M256 128C256 198.692 198.692 256 128 256C57.3076 256 0 198.692 0 128C0 57.3076 57.3076 0 128 0C198.692 0 256 57.3076 256 128ZM125.905 19.5491C124.457 21.3074 125.337 22.6521 129.422 24.7725C142.869 31.6509 157.867 41.0634 169.503 49.8036C179.381 57.1992 185.38 62.4226 195.672 72.5074C204.671 81.3511 205.446 81.9717 207.205 81.9717C210.049 81.9717 210.773 81.4028 213.876 76.4379C217.341 70.9559 218.014 69.301 217.6 67.3874C216.721 63.4052 202.55 47.8901 193.655 41.1668C176.019 27.8238 155.126 20.2731 132.784 19.0836C127.457 18.7733 126.474 18.8767 125.905 19.5491ZM103.15 44.4251C102.116 42.2529 102.684 39.4085 104.443 38.0121C106.563 36.3572 109.097 36.6675 115.045 39.3568C132.37 47.1144 151.402 59.2679 168.727 73.7487C176.278 80.0065 192.103 95.6768 193.345 98.0558C193.914 99.1936 194.12 100.486 193.914 101.935C193.707 103.848 192.983 104.986 189.104 109.485C181.76 118.019 170.537 128.931 168.624 129.448C166.607 129.965 163.814 129.448 162.521 128.259C162.004 127.793 159.832 124.432 157.66 120.76C146.644 102.193 126.836 74.2142 109.925 53.3721C106.667 49.3382 103.615 45.3043 103.15 44.4251ZM77.8084 53.3204C76.0501 54.5616 75.3777 56.2683 73.4125 64.905C67.827 89.057 65.6032 108.192 65.6032 131.879C65.6032 148.377 66.2755 157.686 67.7753 160.168C69.2234 162.65 73.1022 163.53 84.6868 164.047C101.753 164.771 119.027 160.789 136.249 152.204C145.455 147.601 147.006 146.256 147.006 142.791C147.006 140.929 146.179 139.274 141.783 131.827C135.111 120.656 123.63 103.434 114.941 91.5394C102.581 74.7313 86.2383 54.2513 84.2731 53.1652C82.6699 52.286 79.2048 52.3378 77.8084 53.3204ZM29.9701 79.1273C34.5729 69.8699 43.2614 57.4061 46.1058 55.8545C49.1054 54.2513 52.3119 55.4408 53.6048 58.6473C54.3806 60.6642 54.3289 61.0263 53.1394 66.7151C48.4848 88.2812 46.1576 110.52 46.1576 134.154V147.756L44.3992 149.514C42.9511 150.962 42.2788 151.273 40.3652 151.273C38.4517 151.273 37.2105 150.756 33.28 148.273C27.4359 144.653 20.661 139.378 19.4198 137.464C18.5923 136.223 18.4889 134.878 18.5406 127.224C18.644 109.951 22.3159 94.4873 29.9701 79.1273ZM224.116 96.2457C222.875 97.1249 221.479 99.8659 221.479 101.521C221.479 102.038 223.03 105.038 224.892 108.141C226.806 111.244 229.96 117.036 231.926 121.018C233.891 125 235.701 128.31 236.011 128.414C237.408 128.931 235.856 111.968 233.632 102.762C232.701 98.8833 232.132 97.4869 231.046 96.6077C229.391 95.1596 225.926 95.0045 224.116 96.2457ZM193.086 133.172C198.671 127.535 203.636 122.725 204.205 122.415C205.602 121.587 208.343 121.639 210.153 122.57C211.342 123.19 212.325 124.794 214.704 129.707C225.047 151.014 226.133 169.839 218.169 186.751C215.014 193.422 212.325 197.146 205.86 203.817C199.24 210.592 197.896 211.368 194.276 209.972C190.655 208.575 189.466 206.352 188.845 199.887C187.759 188.095 184.915 177.493 178.967 162.547C174.468 151.169 174.468 150.859 179.484 146.411C181.398 144.705 187.501 138.757 193.086 133.172ZM145.713 169.063C126.836 178.631 110.959 182.717 90.8929 183.13C84.9455 183.286 79.5152 183.492 78.8946 183.596C76.981 184.01 74.6538 186.389 74.2917 188.302C73.878 190.526 75.2226 194.405 79.0497 202.162C82.9285 210.023 86.9624 215.816 92.6513 221.711C98.0816 227.4 102.478 230.865 108.27 233.968C111.787 235.882 112.769 236.141 117.838 236.658C127.302 237.64 140.335 236.606 148.558 234.227C156.677 231.848 163.866 226.625 166.659 220.936C169.865 214.419 170.537 205.731 168.779 195.129C167.072 185.147 161.125 167.564 158.798 165.598C156.832 163.943 154.505 164.564 145.713 169.063ZM32.1939 179.459C32.1939 176.976 33.28 175.218 35.5038 174.235C37.8311 173.253 39.3826 173.356 43.3131 174.804C50.3466 177.442 50.3984 177.597 52.8808 187.113C54.1737 192.181 54.3806 193.526 53.9151 195.129C52.9325 198.853 49.1571 201.128 46.1575 199.887C44.4509 199.163 40.0549 193.681 35.3487 186.44C32.8145 182.51 32.1939 181.165 32.1939 179.459Z" fill="black"/>
</svg>
